# xmcd
#
# Track frame offsets: 
#        150
#        19035
#        32412
#        46535
#        65182
#        77897
#        92805
#        105050
#        122177
#        138655
#        156835
#        172345
#        187997
#        204030
#        219450
#
# Disc length: 3075 seconds
#
# Revision: 0
# Processed by: cddbd v1.5.2PL0 Copyright (c) Steve Scherf et al.
# Submitted via: ExactAudioCopy v0.99pb4
#
DISCID=c40c010f
DTITLE=Various Artist - SABOR de AMOR vol. 4
DYEAR=1985
DGENRE=Instrumental
TTITLE0=Soleado
TTITLE1=When A Man Loves A Woman
TTITLE2=Harmony
TTITLE3=Eisamer Hirte
TTITLE4=Il Silenzio
TTITLE5=Petite Fleur
TTITLE6=Stand By Your Man
TTITLE7=Le Rêve
TTITLE8=Killing Me Softly With His Song
TTITLE9=Verde
TTITLE10=Amazing Grace
TTITLE11=Fur Liebe Zahlte
TTITLE12=Aria
TTITLE13=Vergessen Heibt Verloren Sein
TTITLE14=Bleib Wicht Einsam Heut Nacht
EXTD=Romance ao Som Instrumental
EXTT0=
EXTT1=
EXTT2=
EXTT3=
EXTT4=
EXTT5=
EXTT6=
EXTT7=
EXTT8=
EXTT9=
EXTT10=
EXTT11=
EXTT12=
EXTT13=
EXTT14=
PLAYORDER=
